<?xml version="1.0" standalone="no"?>
<!DOCTYPE svg PUBLIC "-//W3C//DTD SVG 20010904//EN"
 "http://www.w3.org/TR/2001/REC-SVG-20010904/DTD/svg10.dtd">
<svg version="1.0" xmlns="http://www.w3.org/2000/svg"
 width="908.000000pt" height="700.000000pt" viewBox="0 0 908.000000 700.000000"
 preserveAspectRatio="xMidYMid meet">

<g transform="translate(0.000000,700.000000) scale(0.100000,-0.100000)"
fill="#000000" stroke="none">
<path d="M9045 6986 c-6 -7 -2035 -1574 -4510 -3481 -2475 -1907 -4509 -3476
-4520 -3486 -19 -19 84 -19 4523 -19 l4542 0 0 3500 c0 3595 1 3536 -35 3486z
m-1995 -3951 c0 -173 4 -315 8 -315 4 0 24 17 45 38 37 37 67 105 67 148 l0
24 231 0 232 0 -7 -60 c-11 -92 -69 -239 -128 -322 l-19 -27 71 -58 70 -57 0
-127 c0 -69 3 -208 7 -307 5 -155 4 -182 -8 -182 -8 0 -117 76 -243 169 l-228
169 -71 -75 c-121 -128 -276 -213 -454 -249 -98 -21 -339 -15 -428 10 -133 37
-253 107 -364 212 l-67 63 -194 -150 -194 -149 -263 0 -263 0 0 378 0 378 249
192 c137 106 254 192 260 192 7 0 12 -64 13 -185 l3 -184 440 339 c242 187
446 340 453 340 9 0 12 -38 12 -155 l0 -155 85 0 85 0 0 -200 0 -200 -86 0
-86 0 6 -27 c17 -69 85 -123 156 -123 52 0 99 25 134 73 20 27 21 44 26 298
l5 269 210 164 c116 90 216 165 223 165 9 1 12 -68 12 -314z"/>
</g>
</svg>
