<?xml version="1.0" encoding="UTF-8"?>
<svg width="39.6mm" height="25mm" xmlns="http://www.w3.org/2000/svg">
<svg width="39.6mm" height="25mm" viewBox="0 0 384 217">
<g style = "stroke: #000000" > 
   <path  d = "M 0,216L0,113L70,58L70,113L196,13L196,58L220,58L220,113L196,113L197,114L197,115L197,116L198,117L198,119L199,120L199,121L200,122L200,123L201,124L201,125L202,126L202,126L203,127L204,128L204,129L205,130L206,130L206,131L207,131L208,132L209,133L210,133L211,133L212,134L213,134L214,134L215,135L216,135L217,135L218,135L220,135L221,135L223,135L225,135L226,135L228,135L230,135L231,135L231,135L232,135L233,134L234,134L235,134L235,134L236,134L237,134L237,134L238,133L239,133L239,133L240,133L240,132L241,132L242,132L242,131L243,131L243,131L243,49L304,0L304,90L305,89L306,89L307,88L308,87L309,87L310,86L311,85L311,85L312,84L313,83L314,82L314,81L315,81L316,80L316,79L317,78L318,77L318,76L319,75L319,74L319,73L320,72L320,70L321,69L321,68L321,67L322,65L322,64L322,63L322,61L322,60L322,58L383,58L383,60L383,62L383,64L383,65L383,66L383,67L383,68L383,69L383,70L383,71L383,72L382,73L382,74L382,75L381,77L381,78L381,79L380,80L380,82L379,83L379,84L378,86L378,87L377,89L377,90L376,91L375,93L375,94L374,95L373,97L373,98L372,100L371,101L370,102L370,104L369,105L368,106L367,108L367,109L366,110L365,112L364,113L363,114L362,115L383,133L383,216L322,171L319,174L316,176L313,179L310,181L307,183L304,186L301,188L298,190L295,192L292,194L288,196L285,198L282,199L279,201L276,203L273,204L270,206L266,207L263,208L260,209L257,210L253,211L250,212L247,213L243,214L240,214L237,215L233,215L230,216L227,216L223,216L220,216L216,216L213,216L210,216L207,215L204,215L200,214L197,214L194,213L190,212L187,211L184,210L180,209L177,208L174,206L170,205L167,203L164,202L160,200L157,198L154,196L151,194L148,192L145,190L142,188L139,185L136,183L134,180L131,178L128,175L126,172L124,170L121,167L70,216L0,216L0,216"/> 
</g> 
</svg>
</svg>
