<?xml version="1.0" encoding="UTF-8" standalone="no"?>
<!-- Created with Inkscape (http://www.inkscape.org/) -->

<svg
   xmlns:dc="http://purl.org/dc/elements/1.1/"
   xmlns:cc="http://creativecommons.org/ns#"
   xmlns:rdf="http://www.w3.org/1999/02/22-rdf-syntax-ns#"
   xmlns:svg="http://www.w3.org/2000/svg"
   xmlns="http://www.w3.org/2000/svg"
   xmlns:inkscape="http://www.inkscape.org/namespaces/inkscape"
   version="1.1"
   width="765"
   height="991.25"
   id="svg2"
   xml:space="preserve"><metadata
     id="metadata8"><rdf:RDF><cc:Work
         rdf:about=""><dc:format>image/svg+xml</dc:format><dc:type
           rdf:resource="http://purl.org/dc/dcmitype/StillImage" /></cc:Work></rdf:RDF></metadata><defs
     id="defs6" /><g
     transform="matrix(1.25,0,0,-1.25,0,991.25)"
     id="g10"><g
       transform="scale(0.1,0.1)"
       id="g12"><path
         d="m 2834,2567.48 1356.04,768.86 c 293.34,166.1 455.86,431.65 455.86,875.52 l -1.73,2624.35 -3620.33,0 -1.73,-2624.35 c 0,-443.87 162.51,-709.42 455.85,-875.52 L 2834,2567.48"
         inkscape:connector-curvature="0"
         id="path14"
         style="fill:#231f20;fill-opacity:1;fill-rule:evenodd;stroke:none" /><path
         d="m 2877.2,2695.45 1267.28,717.19 21.33,16.67 c 192.48,119.99 304.29,307.77 355,520.54 20.17,89.44 31.7,176.66 31.7,266.1 l 0,2532.13 -1675.31,0 0,-4052.63"
         inkscape:connector-curvature="0"
         id="path16"
         style="fill:#fff200;fill-opacity:1;fill-rule:evenodd;stroke:none" /><path
         d="m 4375.19,4797.13 c -22.48,87.33 -62.59,23.33 -61.55,6.67 0.69,-9 23.86,-48.33 15.21,-62 -1.73,-3 -15.56,-27 -17.63,-27.33 -6.92,-1.67 -16.25,20.66 -21.44,23.66 -41.49,24 -53.25,12.01 -54.98,9 -11.41,-18.33 5.88,-76.66 -8.64,-92.99 -14.52,-16 -52.9,-13.67 -58.44,-13 -10.37,1.33 19.37,45.66 -6.57,65.33 -1.04,1 -94.4,-10.67 -135.54,-20.33 -16.95,-4 -15.22,-37.34 -15.22,-62.34 0,-62.66 45.3,-91.66 103.39,-89.32 19.36,1 78.15,68.33 81.61,51.33 0,0 30.77,-58.67 24.54,-51.33 0,0 20.75,-6.34 31.82,-6.34 16.25,0 45.64,-36.66 45.64,-57.66 0,-14 -62.59,28.67 -62.59,4 0,-54.66 -1.38,-30.33 -1.38,-41 0,-2.99 -2.07,-23.99 4.15,-28.66 11.41,-8.33 8.3,-41.66 -6.91,-48.66 -7.96,-4 -22.83,-45 -2.43,-56.67 1.73,-0.67 -25.93,-24.33 -25.93,-45.66 0,-88.33 -22.48,-34.33 -42.19,-81.67 -2.76,-6.33 4.85,-56.32 -17.63,-78.66 -9.34,-8.66 -16.6,-18.33 -16.6,-30 0,-51.99 -43.91,-19.66 -91.28,-19.66 -5.53,0 -15.56,-63.33 -52.9,-74.66 -33.54,-10.67 -128.63,54.33 -147.65,38.66 0,0 -13.14,-4 -13.14,1.67 0,12.33 -5.53,14.33 -5.53,14.66 0,20 11.06,41.33 11.06,57.67 0,32.33 -26.97,79.99 35.27,79.99 39.77,0 20.06,33 58.78,33 7.96,0 23.17,15.67 44.96,11.67 21.43,-3.67 84.36,-30.34 84.36,15.66 0,6.67 2.08,45.67 -1.38,49 -16.25,15.33 10.37,56 -6.91,56 -3.81,0 -41.15,30 -47.72,18.66 -23.17,-40.66 -81.26,-47.66 -85.06,-47.66 -7.95,0 -52.22,25 -52.22,-19.33 0,-9.34 -18.32,-3.34 -19.01,-4 -1.39,-1 -15.56,-30.67 -2.08,-36 0,0 33.54,-0.67 45.3,5.66 0,0 6.91,21 6.91,-11.66 0,-14 -20.05,-47 -59.47,-60.67 0,0 -22.47,3.01 -23.51,10.67 -2.42,17 -8.99,-38.33 -9.68,-43 -3.11,-25.33 -29.74,-56.99 -47.37,-80.33 -22.82,-30 -123.1,-94.32 -135.9,-50.66 -4.14,14.33 3.12,98.66 36.66,98.66 12.1,0 35.96,-7.33 29.74,-7.33 -19.02,0 -36.66,-40 -1.04,-40 0,0 16.94,10.67 24.89,18.33 16.6,16 50.14,121.33 23.86,121.33 -23.86,0 -109.26,101.99 0,114.33 0,0 68.81,-9.67 29.39,-21.67 -34.23,-10 -22.13,-57.33 19.37,-50.66 67.42,11 30.42,121.99 36.99,162.99 0,2 -7.26,50.66 -12.45,61.33 -23.16,49.67 -39.76,2 -30.77,25 30.77,77.66 46.69,110.33 51.52,125.99 2.77,8.33 10.03,22 -5.53,22 -67.43,0 -176.69,-97.66 -190.52,-141 -8.99,-28.66 8.64,-102.65 33.88,-102.65 5.54,0 4.5,-30.67 -1.03,-31.67 0,0 -15.22,-10.66 -15.22,-15.66 0,-19.67 13.49,-53.67 13.49,-53.67 -1.04,-4.67 -106.15,-19.33 -106.15,-21 0,-15.66 4.15,-53.33 4.15,-70.99 0,-14.34 -84.37,-15.67 -84.37,-40.67 0,-21 -3.81,-53.99 -9.34,-60.33 -8.3,-9.66 -69.85,-42 -69.85,-66.99 0,-18.67 -28,-56.33 -41.84,-56.33 -17.63,0 -6.56,-18.34 -13.83,-9 -0.34,0.66 -26.62,-8 -32.5,-5.34 0,0 -6.57,35.67 -5.53,48.67 0,0 -13.83,27.33 -14.87,27.33 -1.73,0 -18.67,51.33 -25.93,35.33 -12.45,-27 -48.41,-28.67 -75.04,-28.67 -35.61,0 -31.81,-19.66 -31.12,43.34 0.7,103.66 -79.18,56.66 -79.18,70.66 0,76.66 160.1,137.32 100.28,186.99 l -7.61,4.67 c 10.72,34.66 91.63,11.66 100.62,11.66 64.66,0 28.01,-75.99 31.46,-90.33 l 23.17,-44.66 c 70.54,-1.33 63.63,127.66 75.04,167.99 0,0 34.92,50.66 39.41,65.66 3.81,12 6.57,41 -2.76,52.33 -9.34,11.34 -44.26,-1.66 -51.18,-12.66 -10.37,-17 -2.07,-44.67 22.48,-52.67 0,0 -17.98,-16.33 -33.89,-6.66 -57.05,35 -170.12,-52 -272.81,-30.67 -33.89,7 -144.88,127.66 91.63,127.66 8.64,0 30.08,9.33 30.42,9.33 12.11,0 -93.01,-34.33 -93.01,-34.33 -32.16,-18.66 -13.83,-47.33 19.02,-54.99 44.95,-10.67 182.57,48.99 182.57,94.32 0,4.67 -54.63,43 -54.63,73.66 0,33.67 16.25,69.34 42.18,74.67 41.84,9 107.88,-34 87.14,-34 -0.35,0 -27.67,12 -34.23,12 -39.42,0 -17.3,-62 54.63,-43.33 48.06,12.33 85.06,85.66 123.78,99.66 15.56,5.67 70.54,46 98.2,46 5.88,0 137.28,14.33 138.66,14.33 3.46,0 15.91,10.67 17.29,10.67 0.35,31.66 -77.11,69.33 -105.46,69.33 -35.27,0 -93.02,104.99 -94.05,104.99 -71.58,0 -86.79,35.67 -119.64,37.33 -0.69,0 -42.53,-55.66 -44.95,-62.33 -4.84,-12 -11.76,-42 -28.7,-42 -4.84,0 -3.46,9 -4.15,9 -10.03,0 -18.33,-0.33 -24.55,-6.33 -14.18,-13.67 -3.46,-45.67 -23.17,-45.67 -11.75,0 -32.5,33.67 -40.8,33.67 -24.55,0 -24.89,-30.67 -39.42,-44.33 0,0 -6.22,-7.34 -15.21,1.34 -14.87,14.33 -15.91,5.66 -16.25,-2.67 -1.39,-27.33 -92.33,-99.66 -116.88,-99.66 -11.75,0 -49.1,-21.34 -70.88,-12 0,0 39.76,68.66 24.55,70.99 -15.9,2.67 -63.97,-1 -91.28,-66.99 l -1.38,-9 c -17.64,-4 -31.13,13 -31.13,13 -34.57,6.99 4.5,58.99 -8.99,85.33 0,0 67.43,78.32 44.26,78.32 -23.51,0 -41.14,-33 -41.14,-33 -7.27,-27.66 -20.41,-18.99 -28.36,-18.99 -13.48,0 -6.57,59.66 -2.42,64.66 4.84,6 63.62,31 63.62,44 0,13 -59.82,2 -59.82,11.67 0,62.99 101.66,159.65 156.64,114.32 15.56,-12.67 55.32,-51.66 57.05,-66.99 0,0 9.68,-28 17.99,-24.67 22.82,9 59.12,0 84.01,27.33 0,0 61.21,39 73.66,55.33 12.1,16 51.17,77.33 21.78,80 -29.39,2.66 -25.24,100.33 6.92,125.99 l 23.16,-25 c 15.56,-7.66 17.29,30.33 2.43,30.33 -11.42,0 -67.78,35.67 -67.78,14.34 0,-5.67 -37.34,-38.67 -37.34,-28.33 0,33.66 -23.86,45.32 -34.92,45.32 -2.42,0 -63.98,22.34 -63.98,22.34 0.35,3 22.48,35.33 32.86,35.33 1.03,0 36.65,1 36.65,17 0,0.33 -20.4,21.33 -20.4,23.66 0,8 5.53,49.67 -21.79,48.67 0,0 -35.96,-2.67 -42.53,-2.67 -11.75,0 -6.57,-6.67 -6.57,-6.67 -31.81,1 -28.7,93 16.26,97.33 l 47.71,15.67 c 43.92,26.66 -21.78,40 -21.78,66.99 0,15.67 11.41,64.67 19.02,66.67 0,0 77.45,10.33 77.45,12 5.53,93.99 39.76,19.33 72.26,33.99 90.6,41.33 121.03,-64.99 104.77,-70.99 -17.28,-6.34 -37.34,15.33 -47.37,-1 -7.25,-11.33 -24.54,-30.33 -24.54,-30.33 -1.39,-15.67 -34.24,-50.67 -21.79,-68.33 0,0 0,-31 3.81,-47 0,0 57.74,-24 24.54,-25 -11.06,-0.33 24.55,-45.66 24.55,-50 0,-19 90.25,-25.99 90.25,-25.99 28.36,-12 112.03,44.33 148.34,44.33 20.75,0 45.99,-67 45.99,-67 11.75,0 65.35,-2.33 65.35,9.33 0,5 -50.83,21.33 -53.25,30 -5.19,17.33 2.77,40.67 2.77,60.67 0,4.33 -48.76,-1.34 -48.76,-4 0,-12 -41.15,-15.67 -42.18,-15.67 -23.17,0.33 -12.11,-1.33 -26.98,-4.67 -16.94,-3.66 -11.06,-11.33 -29.39,-12.66 -43.56,-2.67 -69.15,54.99 -69.15,60.66 0,36.33 159.75,115.33 159.75,115.33 100.62,12.33 20.74,-80 13.13,-80 -13.13,0 -69.15,2.67 -69.15,2.67 -45.29,-15 25.59,-52.66 127.59,-17 0,0 9.69,-5.34 11.07,-5.34 16.6,0 8.3,45.67 4.15,50 -16.6,17.34 -9.68,38.67 -9.68,59 0,12.33 51.52,59 57.4,59 15.55,0 67.77,41.99 77.45,44.66 23.51,6.33 74.69,-6.67 113.07,-6.67 22.47,0 52.21,12 69.5,12 24.55,0 34.92,-36.33 42.18,-39.66 4.84,-2 43.57,-1 43.57,-23.67 0,-2.66 -5.53,-5 -5.53,-5 -17.98,-6 -11.07,-165.32 -11.07,-178.32 0,-56 -23.86,-16.66 -24.2,-43.66 -0.35,-25.67 -62.24,-83.66 -92.67,-83.66 -11.76,0 5.18,-79.67 5.18,-94.67 0,-3.33 -30.42,-59.99 -35.61,-59.99 -1.38,0 -1.38,5 -1.38,18 0,4.66 -42.19,20.99 -42.88,20.99 -11.41,0 -24.55,3.01 -24.55,-5.33 0,-64.33 -6.22,-68.66 37.69,-68.66 3.11,0 51.52,-41.33 43.92,-45.33 -2.77,-1.33 -31.47,25.33 -31.47,9 0,-4.33 -12.45,-36.33 -12.45,-40.67 0,-10.33 -55.67,6.67 -55.67,1.34 0,-8 25.94,-33 25.94,-33 0,-25.67 25.93,-67.66 25.93,-90.33 0,-16.33 -4.15,-21 -4.15,-43.33 0,-4.67 65.35,-64.33 65.35,-71 0,-34.67 51.87,-144.66 70.88,-147.99 28.01,-5.33 106.16,17 106.16,17 32.15,27 43.56,140.99 19.7,188.66 0,0 -19.36,20.33 -30.77,20.33 -8.3,0 -28.35,-5.67 -28.35,-22.34 0,-29.33 -31.12,24 -31.12,26.34 0,1.66 -25.59,47 -27.66,39 0,-0.67 -7.96,-19.67 -12.11,-19.67 -53.24,0 -66.73,119.99 -1.38,125.99 13.14,1 70.54,-20.33 70.54,-19.66 0,78.33 -48.76,207.66 11.07,268.98 l 12.44,25 c -38.72,45 11.07,132.99 24.55,143 53.25,39.99 144.19,83.66 144.19,187.65 0,1.67 -38.38,19.33 -35.27,-14.67 4.15,-43.33 -54.63,-72.66 -54.63,-38 0,10 -7.95,88 12.79,117.66 19.37,27.67 78.15,38 93.36,27 65.7,-47.66 30.43,-158.66 30.08,-161.66 0,-2.99 1.39,-10.33 1.39,-10.33 37,1.33 43.57,6.34 80.22,6.34 44.6,0 65.35,-31.33 68.11,-38.33 5.54,-12.67 -62.93,-91.66 -87.13,-91.66 -11.76,0 -28.7,6.99 -28.7,13.33 0,23.99 56.02,50.99 24.55,52.33 -8.65,0 -57.05,-52.33 -57.05,-52.33 -20.75,-73.67 -72.96,-161.99 -125.17,-169.33 -30.09,-4.33 -41.5,5.67 -47.72,5.67 -6.91,0 -24.9,-16.67 -24.9,-16.67 -26.62,-44.99 -25.93,-233.98 37,-275.32 0,0 -25.58,61.34 -25.58,64.34 0,73.32 126.2,31.66 130.35,112.99 l -26.97,55.33 c 68.81,3.33 148.34,-86.33 77.46,-97.33 -30.09,-4.66 -56.71,-47.66 -57.41,-63.66 -0.69,-14.67 7.96,-65.67 -3.8,-84.33 -7.95,-13.33 -56.7,-39.33 -53.59,-46.33 16.59,-40 15.21,-50.67 14.18,-81.33 -1.39,-33.67 19.36,-105.66 29.04,-95 26.63,30 104.08,51.33 119.3,18 41.14,-88.66 -39.77,-87.99 -42.19,-77.66 z m -468.53,922.28 c 11.07,0 19.37,-1.66 22.13,1 10.03,8.67 -10.72,31.34 -19.36,18.67 -2.42,-3 0,-6 -1.04,-7.67 -2.07,-3 -5.18,0.34 -7.26,-4 -3.46,-7.33 -1.04,-8 5.53,-8 z m -643.83,-784.62 c 0,0 40.8,5.33 43.57,6.67 32.5,13.66 45.3,27.99 58.44,60.33 7.6,18.33 -19.02,-24 -24.21,-19.67 -11.07,8.67 -29.39,-15.66 -38.38,-15.66 0,0 -14.52,-7 -29.74,-10.67 -0.69,-0.33 -13.48,-15 -9.68,-21 z m 280.42,102.33 c 21.44,-20 -21.78,80.66 -17.63,34 1.73,-20 -2.77,-14.33 17.63,-34 z m 110.3,10.33 c 21.1,-5.66 23.52,49.33 62.59,22.67 40.11,-27.33 51.52,-5.67 57.06,29.99 5.18,30.67 37.68,20 19.36,58 -7.26,15 -24.55,-2.66 -25.94,-4 -6.22,-6 -10.71,-25.66 -10.71,-44.66 0,-17.67 -13.84,-41.33 -35.62,-30.33 -4.84,2.33 -33.54,50.33 -42.18,44.66 -9,-6 -23.17,-46 -23.17,-53.66 0,-1.01 -2.77,-22.33 -1.39,-22.67 z m -65.34,31.67 c 11.75,-1.01 15.9,25.66 13.83,32.66 -5.88,20.33 -30.09,6 -24.56,1.67 11.76,-9 0.35,-33.67 10.73,-34.33 z m -121.03,14.66 c 28.36,0 36.66,49 54.29,64.33 7.95,6.67 54.98,5 25.93,22 -10.37,6.34 -26.62,18.66 -39.42,-4 -3.45,-6.33 -38.37,-57.66 -47.71,-57.66 -4.5,0 -31.12,6.66 -31.12,6.66 -2.77,1 -11.07,10 -15.22,11.67 -14.17,6.33 32.51,-43 53.25,-43 z m -24.55,145.33 c 33.89,-7.67 26.28,57.33 -1.38,21.33 -2.42,-3.33 -32.85,1 -19.02,-1.67 14.18,-2.66 -3.8,-14 20.4,-19.66 z m -31.12,86.66 c 14.87,-10.33 42.19,26 39.08,40.66 -3.46,16.67 -20.41,-12 -18.68,-14.33 0,-0.33 -38.03,-14 -20.4,-26.33 z m 433.26,84.66 c 7.26,-1.66 6.57,-1 10.72,1.34 29.05,16.33 -6.57,20.66 -16.26,23.66 -29.04,8.33 -2.07,-23.33 5.54,-25 z m 26.62,23 c 18.68,-5.67 43.91,21.66 33.89,35.33 -1.73,2.67 -28.7,-27 -32.5,-20.66 -6.57,9.99 -12.1,-11.34 -1.39,-14.67 z m 43.57,29 c 20.4,-4.34 35.61,49.66 25.93,52.33 -19.71,6 -12.1,-26.67 -18.67,-33 -5.53,-5.67 -5.88,-3.33 -8.64,-6.33 -3.46,-3.67 0,-13 1.38,-13 z m -92.67,14.33 c 6.57,-7 31.82,8.67 28.7,18.33 -1.38,3.67 -17.97,-0.33 -28.7,8 -44.6,34.66 -27.66,3 0,-26.33 z m 480.63,27.33 c 9.33,-1.66 28.7,32.67 31.12,38.34 7.96,17.99 -19.02,11.66 -20.4,10.33 -3.46,-4 -9.68,-15.67 -9.34,-23.67 0,-0.33 -1.38,-25 -1.38,-25 z m -418.04,25 c 11.06,-0.33 23.86,23 28.7,30.33 13.14,21.33 12.45,53 6.91,76 -3.11,13.33 -13.48,5.67 -12.1,-11.67 0,-1 -11.41,-54.66 -12.45,-56.33 -0.69,-1.33 -21.09,-37.99 -11.06,-38.33 z m -46.34,89.66 c 31.47,-7 -4.83,19.67 -23.16,18 -1.38,0 -20.75,-7.33 -20.4,-7.66 1.04,-2 37.34,-9 43.56,-10.34 z m 204.36,0 c 32.15,1 10.72,3.34 5.53,9 -23.51,26.33 -30.77,-10 -5.53,-9 z m 16.25,51 c 14.87,-6 17.98,28.33 2.77,27.66 -8.65,-0.33 -6.23,-1.33 -17.64,-1.66 -30.77,-1 -0.34,-19.67 14.87,-26 z m -146.95,26 c 5.18,-0.34 30.42,-2 24.55,7 -4.85,7.33 -27.32,5 -40.81,6.33 -40.45,4.33 -0.34,-11.67 16.26,-13.33 z M 3476.52,4240.49 c 4.84,-7.33 77.11,78.67 80.56,85.67 6.92,14 18.67,61.99 13.49,65.33 -8.99,6.33 -21.78,-14.33 -33.89,-20.67 -4.84,-2.66 -50.82,-68.66 -51.86,-69.66 -10.37,-14.67 -10.37,-57.33 -8.3,-60.67 z m 650.75,6.67 c 0,0 10.03,-1 12.79,-0.66 28.35,4.33 49.45,128.99 52.56,143.99 1.73,9 -12.8,41.33 -12.1,15.66 0.34,-7.33 -8.3,-23.99 -8.3,-34.33 0,-15 -28.36,-121.32 -50.14,-103.66 -11.06,9 -2.42,-18.33 5.19,-21 z m -73.65,170.66 c 33.54,-4.33 -9.68,29.33 -12.1,28.66 -19.02,-5.33 -7.61,-6 -1.39,-7.66 3.46,-1 -6.22,-18.34 13.49,-21 z M 3842.7,4719.8 c 24.2,-4.66 -15.22,47.33 -8.3,17 1.72,-8 -2.08,-15.33 8.3,-17"
         inkscape:connector-curvature="0"
         id="path18"
         style="fill:#231f20;fill-opacity:1;fill-rule:evenodd;stroke:none" /><path
         d="m 2788.45,2694.89 -1263.26,716.64 c -54.17,32.78 -101.43,67.78 -146.96,110.56 -187.87,186.1 -261.64,436.09 -265.67,691.08 l 1.73,751.64 1674.16,0 0,-2269.92"
         inkscape:connector-curvature="0"
         id="path20"
         style="fill:#ffffff;fill-opacity:1;fill-rule:evenodd;stroke:none" /><path
         d="m 2259.36,4113.1 -717.14,-202.82 -11.76,46.5 715.93,202.65 -36.13,130.16 104.25,26.84 55.85,-201.66 -24.56,-143.32 -43.91,-11.34 -42.53,152.99"
         inkscape:connector-curvature="0"
         id="path22"
         style="fill:#231f20;fill-opacity:1;fill-rule:evenodd;stroke:none" /><path
         d="m 1803.86,4184.47 -23.68,-0.17 c -5.02,0 -8.82,-3.66 -8.82,-8.49 l 0,0 c 0,-4.84 3.8,-8.51 8.82,-8.51 l 18.84,0 -100.1,-361.47 4.67,-124.66 135.2,486.3 102.34,-0.17 168.22,-605.29 -36.82,270.65 -92.15,334.48 19.71,0.16 c 5.01,0 8.82,3.67 8.82,8.51 l 0,0 c 0,4.83 -3.81,8.49 -8.82,8.49 l -24.38,0 -43.74,158.5 c 29.22,16 49.62,49.99 49.62,88.66 0,45.83 -28.7,85.66 -65.35,94.83 -3.98,1 -8.13,6.66 -8.13,13.83 0,4.5 1.9,8.83 4.32,11.33 9.52,10 16.43,29.17 16.43,50.34 0,32.33 -15.56,58.82 -34.58,58.82 -19.02,0 -34.58,-26.49 -34.58,-58.82 0,-20.67 6.4,-39.67 16.43,-49.67 2.76,-2.83 5.01,-7.17 5.01,-12 0,-7.17 -4.15,-12.83 -8.3,-13.83 -37.17,-9.5 -65.87,-49 -65.87,-94.83 0,-35.5 17.12,-66.66 42.19,-83.5 l -45.3,-163.49 z m 132.6,-0.33 -93.01,0.16 46.51,167.16 46.5,-167.32 z m -10.89,181.82 -2.07,7.67 c 0,0 -13.14,15.67 -23.51,13 l 0,0 c -3.98,-1 -7.09,-4.17 -9.34,-7.83 -2.42,3.83 -6.22,6.66 -10.89,7.83 l 0,0 c -10.38,2.67 -21.1,-3.83 -23.51,-13 l -0.7,-2.5 c -16.59,13.5 -27.66,35.66 -27.66,60.33 0,41 29.91,74.66 66.39,74.66 36.48,0 66.39,-33.66 66.39,-74.66 0,-28.17 -14.53,-53.33 -35.1,-65.5"
         inkscape:connector-curvature="0"
         id="path24"
         style="fill:#231f20;fill-opacity:1;fill-rule:evenodd;stroke:none" /><path
         d="m 2788.45,5051.48 -1675.89,0 1.73,1698.27 1674.16,0 0,-1698.27"
         inkscape:connector-curvature="0"
         id="path26"
         style="fill:#2e3192;fill-opacity:1;fill-rule:evenodd;stroke:none" /><path
         d="m 1814.22,5933.6 -56.06,171.31 152.68,104.63 -186.47,0 -56.85,167.1 -58.45,-166.33 -181.7,0 145.12,-103.48 -60.03,-167.49 151.08,102.71 150.68,-108.45"
         inkscape:connector-curvature="0"
         id="path28"
         style="fill:#fff200;fill-opacity:1;fill-rule:evenodd;stroke:none" /><path
         d="m 2377.46,5933.6 -56.05,171.31 152.66,104.63 -186.46,0 -56.86,167.1 -58.44,-166.33 -181.69,0 145.11,-103.48 -60.03,-167.49 151.08,102.71 150.68,-108.45"
         inkscape:connector-curvature="0"
         id="path30"
         style="fill:#fff200;fill-opacity:1;fill-rule:evenodd;stroke:none" /><path
         d="m 2095.84,5421.69 -56.06,171.31 152.67,104.63 -186.46,0 -56.86,167.1 -58.44,-166.33 -181.7,0 145.12,-103.48 -60.04,-167.48 151.09,102.71 150.68,-108.46"
         inkscape:connector-curvature="0"
         id="path32"
         style="fill:#fff200;fill-opacity:1;fill-rule:evenodd;stroke:none" /></g></g></svg>